<svg xmlns="http://www.w3.org/2000/svg" viewBox="0 0 88 98" width="88" height="98" role="img" aria-label="Postline">
  <defs>
    <linearGradient id="postlineGrad" x1="0" y1="0" x2="88" y2="98" gradientUnits="userSpaceOnUse">
      <stop offset="0" stop-color="#FF9DC7"/>
      <stop offset="0.55" stop-color="#FC6BAA"/>
      <stop offset="1" stop-color="#F03D86"/>
    </linearGradient>
  </defs>
  <path fill-rule="evenodd" fill="url(#postlineGrad)" d="M32.5,0.5C37.21,0.54 55.17,0.71 60.75,1C66.33,1.29 63.79,1.38 66,2.25C68.21,3.13 71.5,4.46 74,6.25C76.5,8.04 79,10.29 81,13C83,15.71 84.96,19.71 86,22.5C87.04,25.29 87,26.29 87.25,29.75C87.5,33.21 87.5,39.08 87.5,43.25C87.5,47.42 87.67,51.42 87.25,54.75C86.83,58.08 86.04,60.67 85,63.25C83.96,65.83 83.04,67.79 81,70.25C78.96,72.71 75.5,76.08 72.75,78C70,79.92 66.88,80.96 64.5,81.75C62.13,82.54 63.63,82.58 58.5,82.75C53.38,82.92 38.21,83.04 33.75,82.75C29.29,82.46 32.21,81.54 31.75,81C31.29,80.46 31.13,81.38 31,79.5C30.88,77.63 30.67,72.08 31,69.75C31.33,67.42 32.38,66.46 33,65.5C33.63,64.54 33.67,64.54 34.75,64C35.83,63.46 37.42,62.5 39.5,62.25C41.58,62 44.42,62.54 47.25,62.5C50.08,62.46 54.08,62.58 56.5,62C58.92,61.42 60.38,60.04 61.75,59C63.13,57.96 64.21,56.58 64.75,55.75C65.29,54.92 64.83,54.38 65,54C65.17,53.63 65.46,54.13 65.75,53.5C66.04,52.88 66.58,53.38 66.75,50.25C66.92,47.13 67.08,38.21 66.75,34.75C66.42,31.29 65.63,30.96 64.75,29.5C63.88,28.04 62.83,27.04 61.5,26C60.17,24.96 58.04,23.79 56.75,23.25C55.46,22.71 57.63,22.83 53.75,22.75C49.88,22.67 37.83,22.38 33.5,22.75C29.17,23.13 29.33,24.04 27.75,25C26.17,25.96 24.88,27.5 24,28.5C23.13,29.5 22.96,29.96 22.5,31C22.04,32.04 21.5,24.79 21.25,34.75C21,44.71 21.54,80.67 21,90.75C20.46,100.83 19.33,94.04 18,95.25C16.67,96.46 14.5,97.54 13,98C11.5,98.46 10.54,98.46 9,98C7.46,97.54 5.08,96.38 3.75,95.25C2.42,94.13 1.54,92.38 1,91.25C0.46,90.13 0.54,98.71 0.5,88.5C0.46,78.29 0.5,40.96 0.75,30C1,19.04 1.13,25.33 2,22.75C2.88,20.17 4.88,16.46 6,14.5C7.13,12.54 7.42,12.38 8.75,11C10.08,9.63 12.71,7.21 14,6.25C15.29,5.29 15.92,5.63 16.5,5.25C17.08,4.88 16.08,4.67 17.5,4C18.92,3.33 22.5,1.79 25,1.25C27.5,0.71 31.25,0.88 32.5,0.75C33.75,0.63 27.79,0.46 32.5,0.5Z M38.75,33.75C40.71,33.75 47.92,33.58 50.5,34C53.08,34.42 53.42,35.63 54.25,36.25C55.08,36.88 55.04,36.83 55.5,37.75C55.96,38.67 56.88,40.25 57,41.75C57.13,43.25 56.67,45.42 56.25,46.75C55.83,48.08 55,49.08 54.5,49.75C54,50.42 54,50.33 53.25,50.75C52.5,51.17 52.71,52.04 50,52.25C47.29,52.46 39.54,52.25 37,52C34.46,51.75 35.46,51.29 34.75,50.75C34.04,50.21 33.33,49.63 32.75,48.75C32.17,47.88 31.54,46.63 31.25,45.5C30.96,44.38 30.71,43.42 31,42C31.29,40.58 32.04,38.29 33,37C33.96,35.71 35.79,34.75 36.75,34.25C37.71,33.75 38.42,34.08 38.75,34C39.08,33.92 36.79,33.75 38.75,33.75Z"/>
</svg>
